# xmcd
#
# Track frame offsets: 
#        150
#        24112
#        44076
#        56949
#        80736
#        98663
#        126652
#        144178
#        163536
#        185007
#        207757
#        222065
#        238128
#        268207
#        290748
#        309723
#
# Disc length: 4263 seconds
#
# Revision: 0
# Processed by: cddbd v1.5.2PL0 Copyright (c) Steve Scherf et al.
# Submitted via: ExactAudioCopy v1.0b4
#
DISCID=f910a510
DTITLE=John Mayall and The Blues Breakers - The Best Of  John Mayall (DL
DTITLE=P)
DYEAR=1900
DGENRE=Blues
TTITLE0=Play The Harp
TTITLE1=Moving On
TTITLE2=Mess Around
TTITLE3=Full Speed
TTITLE4=Red Sky
TTITLE5=The Laws Must Change
TTITLE6=Change Your Ways
TTITLE7=Good Looking Stranger
TTITLE8=Room To Move
TTITLE9=Do It
TTITLE10=California Campground
TTITLE11=Keep Your Country Green
TTITLE12=Things Go Wrong
TTITLE13=Deep Blue Sea
TTITLE14=Prisons On The Road
TTITLE15=Boogie Albert
EXTD=
EXTT0=
EXTT1=
EXTT2=
EXTT3=
EXTT4=
EXTT5=
EXTT6=
EXTT7=
EXTT8=
EXTT9=
EXTT10=
EXTT11=
EXTT12=
EXTT13=
EXTT14=
EXTT15=
PLAYORDER=
